<svg width="36" height="46" viewBox="0 0 36 46" fill="none" xmlns="http://www.w3.org/2000/svg">
<path d="M18 0C8.05905 0 0 7.91804 0 17.688C0 25.5845 11.7644 39.9807 16.2717 45.2059C16.4831 45.4545 16.7474 45.6545 17.0461 45.7917C17.3447 45.9289 17.6703 46 18 46C18.3297 46 18.6553 45.9289 18.9539 45.7917C19.2526 45.6545 19.5169 45.4545 19.7283 45.2059C24.2356 39.9807 36 25.5869 36 17.688C36 7.91804 27.941 0 18 0ZM18 22.9994C14.7676 22.9994 12.1495 20.424 12.1495 17.2496C12.1495 14.0728 14.77 11.4997 18 11.4997C21.23 11.4997 23.8505 14.0728 23.8505 17.2496C23.8505 20.424 21.23 22.9994 18 22.9994Z" fill="white"/>
</svg>
