<svg width="20" height="19" viewBox="0 0 20 19" fill="none" xmlns="http://www.w3.org/2000/svg">
<path d="M16.2857 8.49174V8.99174H16.7857H17.8571C18.3509 8.99174 18.7789 9.14256 19.0722 9.36252C19.3655 9.5824 19.5 9.84784 19.5 10.0986V16.5259C19.5 16.7767 19.3655 17.0421 19.0722 17.262C18.7789 17.4819 18.3509 17.6328 17.8571 17.6328H2.14286C1.64912 17.6328 1.22109 17.4819 0.927754 17.262C0.634518 17.0421 0.5 16.7767 0.5 16.5259V10.0986C0.5 9.84784 0.634517 9.5824 0.927754 9.36252C1.22109 9.14256 1.64912 8.99174 2.14286 8.99174H3.21429H3.71429V8.49174V6.08148C3.71429 4.87209 4.36959 3.73617 5.5042 2.88537C6.63873 2.03464 8.22756 1.49316 10 1.49316C11.7724 1.49316 13.3613 2.03464 14.4958 2.88537C15.6304 3.73617 16.2857 4.87209 16.2857 6.08148V8.49174ZM13.2143 8.99174H13.7143V8.49174V6.08148C13.7143 5.22379 13.248 4.48505 12.5717 3.97796C11.8954 3.47081 10.9842 3.17123 10 3.17123C9.01577 3.17123 8.10459 3.47081 7.42827 3.97796C6.75202 4.48505 6.28571 5.22379 6.28571 6.08148V8.49174V8.99174H6.78571H13.2143Z" stroke="#484848"/>
</svg>
