<svg width="32" height="37" viewBox="0 0 32 37" fill="none" xmlns="http://www.w3.org/2000/svg">
<path d="M23.6471 1H1V36H31V8.44094M23.6471 1L31 8.44094M23.6471 1V8.44094H31" stroke="white"/>
<path d="M6.58813 15.8818H26.5881M6.58813 21.9448H26.5881M6.58813 28.0078H26.5881" stroke="white"/>
<path d="M12.8128 6.56793V12.1279H11.9008V8.31993L10.2048 12.1279H9.57283L7.86883 8.31993V12.1279H6.95683V6.56793H7.94083L9.89283 10.9279L11.8368 6.56793H12.8128ZM14.9235 6.56793V12.1279H14.0115V6.56793H14.9235ZM17.9529 12.1839C17.5796 12.1839 17.2436 12.1199 16.9449 11.9919C16.6462 11.8586 16.4116 11.6719 16.2409 11.4319C16.0702 11.1919 15.9849 10.9119 15.9849 10.5919H16.9609C16.9822 10.8319 17.0756 11.0293 17.2409 11.1839C17.4116 11.3386 17.6489 11.4159 17.9529 11.4159C18.2676 11.4159 18.5129 11.3413 18.6889 11.1919C18.8649 11.0373 18.9529 10.8399 18.9529 10.5999C18.9529 10.4133 18.8969 10.2613 18.7849 10.1439C18.6782 10.0266 18.5422 9.93593 18.3769 9.87193C18.2169 9.80793 17.9929 9.7386 17.7049 9.66393C17.3422 9.56793 17.0462 9.47193 16.8169 9.37593C16.5929 9.2746 16.4009 9.11993 16.2409 8.91193C16.0809 8.70393 16.0009 8.4266 16.0009 8.07993C16.0009 7.75993 16.0809 7.47993 16.2409 7.23993C16.4009 6.99993 16.6249 6.81593 16.9129 6.68793C17.2009 6.55993 17.5342 6.49593 17.9129 6.49593C18.4516 6.49593 18.8916 6.63193 19.2329 6.90393C19.5796 7.1706 19.7716 7.5386 19.8089 8.00793H18.8009C18.7849 7.80526 18.6889 7.63193 18.5129 7.48793C18.3369 7.34393 18.1049 7.27193 17.8169 7.27193C17.5556 7.27193 17.3422 7.3386 17.1769 7.47193C17.0116 7.60526 16.9289 7.79726 16.9289 8.04793C16.9289 8.2186 16.9796 8.35993 17.0809 8.47193C17.1876 8.5786 17.3209 8.66393 17.4809 8.72793C17.6409 8.79193 17.8596 8.86126 18.1369 8.93593C18.5049 9.03726 18.8036 9.1386 19.0329 9.23993C19.2676 9.34126 19.4649 9.4986 19.6249 9.71193C19.7902 9.91993 19.8729 10.1999 19.8729 10.5519C19.8729 10.8346 19.7956 11.1013 19.6409 11.3519C19.4916 11.6026 19.2702 11.8053 18.9769 11.9599C18.6889 12.1093 18.3476 12.1839 17.9529 12.1839Z" fill="white"/>
</svg>
