<svg width="50" height="54" viewBox="0 0 50 54" fill="none" xmlns="http://www.w3.org/2000/svg">
<path d="M45.0908 27.8873C45.0908 36.704 37.0241 44.1338 26.7045 44.1338C16.3848 44.1338 8.31812 36.704 8.31812 27.8873C8.31812 19.0707 16.3848 11.6409 26.7045 11.6409C37.0241 11.6409 45.0908 19.0707 45.0908 27.8873Z" stroke="white" stroke-width="3"/>
<ellipse cx="26.7045" cy="27.8872" rx="14.2045" ry="12.6761" fill="white"/>
<path d="M22.0077 27.0496L33.5228 19.7747L27.1592 26.1402L33.5228 27.959L19.8865 36.5071L27.1592 28.8684L22.0077 27.0496Z" fill="#FFCA10"/>
<path d="M26.1364 0L23.2496 5H29.0231L26.1364 0ZM26.1364 10.9014L29.0231 5.90141H23.2496L26.1364 10.9014ZM50 10.9014L44.2876 11.7392L47.8693 16.2674L50 10.9014ZM37.5 20.7887L43.2124 19.951L39.6307 15.4228L37.5 20.7887ZM50 28.9014L45 26.0147V31.7882L50 28.9014ZM40.625 28.9014L45.625 31.7882V26.0147L40.625 28.9014ZM34.0909 38.5352L37.4807 43.2088L39.8333 37.9364L34.0909 38.5352ZM50 45.6338L46.6102 40.9602L44.2576 46.2327L50 45.6338ZM26.1364 40.5634L23.2496 45.5634H29.0231L26.1364 40.5634ZM26.1364 54L29.0231 49H23.2496L26.1364 54ZM17.0455 38.5352L11.2739 38.3852L14.0297 43.4585L17.0455 38.5352ZM3.97727 45.6338L9.74883 45.7839L6.993 40.7105L3.97727 45.6338ZM12.5 28.9014L7.5 26.0147V31.7882L12.5 28.9014ZM0 28.9014L5 31.7882V26.0147L0 28.9014ZM14.4886 20.7887L11.6022 15.7886L8.71513 20.7884L14.4886 20.7887ZM0 12.4225L2.88645 17.4227L5.7735 12.4229L0 12.4225ZM25.6364 4.5V6.40141H26.6364V4.5H25.6364ZM46.1604 13.3009L40.7192 17.6049L41.3396 18.3892L46.7808 14.0852L46.1604 13.3009ZM45.5 28.4014H45.125V29.4014H45.5V28.4014ZM37.9966 40.8255L45.6868 44.2568L46.0943 43.3436L38.4041 39.9122L37.9966 40.8255ZM25.6364 45.0634V49.5H26.6364V45.0634H25.6364ZM12.8525 40.2438L7.69289 43.0465L8.17021 43.9252L13.3298 41.1225L12.8525 40.2438ZM8 28.4014H4.5V29.4014H8V28.4014ZM10.8417 18.1055L4.147 14.2398L3.64695 15.1058L10.3416 18.9715L10.8417 18.1055Z" fill="white"/>
</svg>
